<svg width="355" height="57" viewBox="0 0 355 57" fill="none" xmlns="http://www.w3.org/2000/svg">
<path d="M54.475 21.1C54.875 21.1 55.275 21.4 55.475 21.8C55.675 22.2 55.575 22.7 55.275 23L30.275 48C23.375 54.9 12.075 54.9 5.175 48C-1.725 41.1 -1.725 29.8 5.175 22.9L19.575 8.50003C23.675 4.40003 29.275 2.80003 34.575 3.50003C34.975 3.60003 35.275 3.80002 35.475 4.20002C35.575 4.60002 35.475 5.00003 35.175 5.30003L31.975 8.50003C31.475 9.00003 30.875 9.30002 30.275 9.40002C27.875 9.80002 25.575 10.9 23.775 12.7L9.375 27.1C4.775 31.7 4.775 39.2 9.375 43.8C13.975 48.4 21.475 48.4 26.075 43.8L43.975 25.9L41.075 23C40.775 22.7 40.675 22.2 40.875 21.8C41.075 21.4 41.475 21.1 41.875 21.1H54.475ZM28.675 35.6C29.075 35.6 29.475 35.3 29.675 34.9C29.875 34.5 29.775 34 29.475 33.7L26.575 30.8L44.475 12.9C49.075 8.30002 56.575 8.30002 61.175 12.9C65.775 17.5 65.775 25 61.175 29.6L46.675 44C44.875 45.8 42.575 46.9 40.175 47.3C39.475 47.4 38.875 47.7 38.475 48.2L35.275 51.4C34.975 51.7 34.875 52.1 34.975 52.5C35.075 52.9 35.475 53.2 35.875 53.2C41.175 53.9 46.775 52.3 50.875 48.2L65.275 33.8C72.175 26.9 72.175 15.6 65.275 8.70002C58.375 1.80002 47.075 1.80002 40.175 8.70002L15.175 33.7C14.875 34 14.775 34.5 14.975 34.9C15.175 35.3 15.575 35.6 15.975 35.6H28.675Z" fill="#0044CC"/>
<path d="M114.784 48V8.09997H122.593V48H114.784ZM88.507 48V8.04297H96.316V48H88.507ZM94.321 31.185V24.003H118.489V31.185H94.321Z" fill="#141412"/>
<path d="M144.139 48.684C141.251 48.684 138.667 48.057 136.387 46.803C134.145 45.511 132.378 43.744 131.086 41.502C129.832 39.26 129.205 36.676 129.205 33.75C129.205 30.824 129.832 28.24 131.086 25.998C132.34 23.756 134.088 22.008 136.33 20.754C138.572 19.462 141.137 18.816 144.025 18.816C146.951 18.816 149.535 19.462 151.777 20.754C154.019 22.008 155.767 23.756 157.021 25.998C158.275 28.24 158.902 30.824 158.902 33.75C158.902 36.676 158.275 39.26 157.021 41.502C155.767 43.744 154.019 45.511 151.777 46.803C149.573 48.057 147.027 48.684 144.139 48.684ZM144.139 41.73C145.545 41.73 146.78 41.388 147.844 40.704C148.908 40.02 149.725 39.089 150.295 37.911C150.903 36.695 151.207 35.308 151.207 33.75C151.207 32.192 150.903 30.824 150.295 29.646C149.687 28.43 148.832 27.48 147.73 26.796C146.666 26.112 145.431 25.77 144.025 25.77C142.657 25.77 141.422 26.112 140.32 26.796C139.256 27.48 138.42 28.43 137.812 29.646C137.204 30.824 136.9 32.192 136.9 33.75C136.9 35.308 137.204 36.695 137.812 37.911C138.42 39.089 139.275 40.02 140.377 40.704C141.479 41.388 142.733 41.73 144.139 41.73Z" fill="#141412"/>
<path d="M177.829 48.684C174.941 48.684 172.357 48.057 170.077 46.803C167.835 45.511 166.068 43.744 164.776 41.502C163.522 39.26 162.895 36.676 162.895 33.75C162.895 30.824 163.522 28.24 164.776 25.998C166.03 23.756 167.778 22.008 170.02 20.754C172.262 19.462 174.827 18.816 177.715 18.816C180.641 18.816 183.225 19.462 185.467 20.754C187.709 22.008 189.457 23.756 190.711 25.998C191.965 28.24 192.592 30.824 192.592 33.75C192.592 36.676 191.965 39.26 190.711 41.502C189.457 43.744 187.709 45.511 185.467 46.803C183.263 48.057 180.717 48.684 177.829 48.684ZM177.829 41.73C179.235 41.73 180.47 41.388 181.534 40.704C182.598 40.02 183.415 39.089 183.985 37.911C184.593 36.695 184.897 35.308 184.897 33.75C184.897 32.192 184.593 30.824 183.985 29.646C183.377 28.43 182.522 27.48 181.42 26.796C180.356 26.112 179.121 25.77 177.715 25.77C176.347 25.77 175.112 26.112 174.01 26.796C172.946 27.48 172.11 28.43 171.502 29.646C170.894 30.824 170.59 32.192 170.59 33.75C170.59 35.308 170.894 36.695 171.502 37.911C172.11 39.089 172.965 40.02 174.067 40.704C175.169 41.388 176.423 41.73 177.829 41.73Z" fill="#141412"/>
<path d="M205.306 40.761L200.803 35.574L215.395 19.5H224.344L205.306 40.761ZM198.124 48V8.09997H205.648V48H198.124ZM216.364 48L206.902 34.206L211.804 29.019L225.199 48H216.364Z" fill="#141412"/>
<path d="M248.154 48L247.755 42.699V8.09997H255.279V48H248.154ZM239.205 48.684C236.583 48.684 234.303 48.076 232.365 46.86C230.465 45.644 228.983 43.915 227.919 41.673C226.855 39.431 226.323 36.79 226.323 33.75C226.323 30.672 226.855 28.031 227.919 25.827C228.983 23.585 230.465 21.856 232.365 20.64C234.303 19.424 236.583 18.816 239.205 18.816C241.599 18.816 243.613 19.424 245.247 20.64C246.919 21.856 248.192 23.585 249.066 25.827C249.94 28.031 250.377 30.672 250.377 33.75C250.377 36.79 249.94 39.431 249.066 41.673C248.192 43.915 246.919 45.644 245.247 46.86C243.613 48.076 241.599 48.684 239.205 48.684ZM241.143 41.787C242.435 41.787 243.575 41.445 244.563 40.761C245.589 40.077 246.387 39.127 246.957 37.911C247.527 36.695 247.812 35.308 247.812 33.75C247.812 32.192 247.527 30.805 246.957 29.589C246.387 28.373 245.589 27.442 244.563 26.796C243.575 26.112 242.416 25.77 241.086 25.77C239.718 25.77 238.521 26.112 237.495 26.796C236.469 27.442 235.652 28.373 235.044 29.589C234.436 30.805 234.132 32.192 234.132 33.75C234.132 35.308 234.436 36.695 235.044 37.911C235.652 39.127 236.469 40.077 237.495 40.761C238.559 41.445 239.775 41.787 241.143 41.787Z" fill="#141412"/>
<path d="M275.214 48.684C272.402 48.684 269.913 48.057 267.747 46.803C265.581 45.511 263.871 43.744 262.617 41.502C261.401 39.26 260.793 36.676 260.793 33.75C260.793 30.824 261.42 28.24 262.674 25.998C263.966 23.756 265.714 22.008 267.918 20.754C270.16 19.462 272.725 18.816 275.613 18.816C278.121 18.816 280.42 19.481 282.51 20.811C284.638 22.103 286.329 24.022 287.583 26.568C288.875 29.076 289.521 32.135 289.521 35.745H267.918L268.602 35.061C268.602 36.467 268.944 37.702 269.628 38.766C270.35 39.792 271.262 40.59 272.364 41.16C273.504 41.692 274.72 41.958 276.012 41.958C277.57 41.958 278.843 41.635 279.831 40.989C280.819 40.305 281.579 39.431 282.111 38.367L288.837 40.989C288.039 42.585 286.994 43.972 285.702 45.15C284.448 46.29 282.947 47.164 281.199 47.772C279.451 48.38 277.456 48.684 275.214 48.684ZM269.001 30.843L268.317 30.159H282.054L281.427 30.843C281.427 29.475 281.104 28.392 280.458 27.594C279.812 26.758 279.014 26.15 278.064 25.77C277.152 25.39 276.259 25.2 275.385 25.2C274.511 25.2 273.58 25.39 272.592 25.77C271.604 26.15 270.749 26.758 270.027 27.594C269.343 28.392 269.001 29.475 269.001 30.843Z" fill="#141412"/>
<path d="M308.2 48.684C305.236 48.684 302.595 48.057 300.277 46.803C297.959 45.511 296.154 43.744 294.862 41.502C293.57 39.222 292.924 36.638 292.924 33.75C292.924 30.824 293.57 28.24 294.862 25.998C296.154 23.756 297.94 22.008 300.22 20.754C302.5 19.462 305.122 18.816 308.086 18.816C310.936 18.816 313.539 19.519 315.895 20.925C318.251 22.331 319.961 24.364 321.025 27.024L313.957 29.532C313.425 28.43 312.589 27.556 311.449 26.91C310.347 26.226 309.112 25.884 307.744 25.884C306.338 25.884 305.103 26.226 304.039 26.91C302.975 27.556 302.139 28.468 301.531 29.646C300.923 30.824 300.619 32.192 300.619 33.75C300.619 35.308 300.923 36.676 301.531 37.854C302.139 38.994 302.994 39.906 304.096 40.59C305.198 41.274 306.452 41.616 307.858 41.616C309.226 41.616 310.461 41.255 311.563 40.533C312.703 39.811 313.539 38.861 314.071 37.683L321.196 40.191C320.094 42.889 318.365 44.979 316.009 46.461C313.691 47.943 311.088 48.684 308.2 48.684Z" fill="#141412"/>
<path d="M333.331 40.761L328.828 35.574L343.42 19.5H352.369L333.331 40.761ZM326.149 48V8.09997H333.673V48H326.149ZM344.389 48L334.927 34.206L339.829 29.019L353.224 48H344.389Z" fill="#141412"/>
</svg>
