<svg fill="none" height="57" viewBox="0 0 355 57" width="355" xmlns="http://www.w3.org/2000/svg"><path d="m54.475 21.1c.4 0 .8.3 1 .7s.1.9-.2 1.2l-25 25c-6.9 6.9-18.2 6.9-25.1 0s-6.9-18.2 0-25.1l14.4-14.39997c4.1-4.1 9.7-5.7 15-5 .4.1.7.29999.9.69999.1.4 0 .80001-.3 1.10001l-3.2 3.2c-.5.5-1.1.79999-1.7.89999-2.4.4-4.7 1.49998-6.5 3.29998l-14.4 14.4c-4.6 4.6-4.6 12.1 0 16.7s12.1 4.6 16.7 0l17.9-17.9-2.9-2.9c-.3-.3-.4-.8-.2-1.2s.6-.7 1-.7zm-25.8 14.5c.4 0 .8-.3 1-.7s.1-.9-.2-1.2l-2.9-2.9 17.9-17.9c4.6-4.59998 12.1-4.59998 16.7 0 4.6 4.6 4.6 12.1 0 16.7l-14.5 14.4c-1.8 1.8-4.1 2.9-6.5 3.3-.7.1-1.3.4-1.7.9l-3.2 3.2c-.3.3-.4.7-.3 1.1s.5.7.9.7c5.3.7 10.9-.9 15-5l14.4-14.4c6.9-6.9 6.9-18.2 0-25.09998-6.9-6.9-18.2-6.9-25.1 0l-25 24.99998c-.3.3-.4.8-.2 1.2s.6.7 1 .7z" fill="#04c"/><g fill="#fff"><path d="m114.784 48v-39.90003h7.809v39.90003zm-26.277 0v-39.95703h7.809v39.95703zm5.814-16.815v-7.182h24.168v7.182z"/><path d="m144.139 48.684c-2.888 0-5.472-.627-7.752-1.881-2.242-1.292-4.009-3.059-5.301-5.301-1.254-2.242-1.881-4.826-1.881-7.752s.627-5.51 1.881-7.752 3.002-3.99 5.244-5.244c2.242-1.292 4.807-1.938 7.695-1.938 2.926 0 5.51.646 7.752 1.938 2.242 1.254 3.99 3.002 5.244 5.244s1.881 4.826 1.881 7.752-.627 5.51-1.881 7.752-3.002 4.009-5.244 5.301c-2.204 1.254-4.75 1.881-7.638 1.881zm0-6.954c1.406 0 2.641-.342 3.705-1.026s1.881-1.615 2.451-2.793c.608-1.216.912-2.603.912-4.161s-.304-2.926-.912-4.104c-.608-1.216-1.463-2.166-2.565-2.85-1.064-.684-2.299-1.026-3.705-1.026-1.368 0-2.603.342-3.705 1.026-1.064.684-1.9 1.634-2.508 2.85-.608 1.178-.912 2.546-.912 4.104s.304 2.945.912 4.161c.608 1.178 1.463 2.109 2.565 2.793s2.356 1.026 3.762 1.026z"/><path d="m177.829 48.684c-2.888 0-5.472-.627-7.752-1.881-2.242-1.292-4.009-3.059-5.301-5.301-1.254-2.242-1.881-4.826-1.881-7.752s.627-5.51 1.881-7.752 3.002-3.99 5.244-5.244c2.242-1.292 4.807-1.938 7.695-1.938 2.926 0 5.51.646 7.752 1.938 2.242 1.254 3.99 3.002 5.244 5.244s1.881 4.826 1.881 7.752-.627 5.51-1.881 7.752-3.002 4.009-5.244 5.301c-2.204 1.254-4.75 1.881-7.638 1.881zm0-6.954c1.406 0 2.641-.342 3.705-1.026s1.881-1.615 2.451-2.793c.608-1.216.912-2.603.912-4.161s-.304-2.926-.912-4.104c-.608-1.216-1.463-2.166-2.565-2.85-1.064-.684-2.299-1.026-3.705-1.026-1.368 0-2.603.342-3.705 1.026-1.064.684-1.9 1.634-2.508 2.85-.608 1.178-.912 2.546-.912 4.104s.304 2.945.912 4.161c.608 1.178 1.463 2.109 2.565 2.793s2.356 1.026 3.762 1.026z"/><path d="m205.306 40.761-4.503-5.187 14.592-16.074h8.949zm-7.182 7.239v-39.90003h7.524v39.90003zm18.24 0-9.462-13.794 4.902-5.187 13.395 18.981z"/><path d="m248.154 48-.399-5.301v-34.59903h7.524v39.90003zm-8.949.684c-2.622 0-4.902-.608-6.84-1.824-1.9-1.216-3.382-2.945-4.446-5.187s-1.596-4.883-1.596-7.923c0-3.078.532-5.719 1.596-7.923 1.064-2.242 2.546-3.971 4.446-5.187 1.938-1.216 4.218-1.824 6.84-1.824 2.394 0 4.408.608 6.042 1.824 1.672 1.216 2.945 2.945 3.819 5.187.874 2.204 1.311 4.845 1.311 7.923 0 3.04-.437 5.681-1.311 7.923s-2.147 3.971-3.819 5.187c-1.634 1.216-3.648 1.824-6.042 1.824zm1.938-6.897c1.292 0 2.432-.342 3.42-1.026 1.026-.684 1.824-1.634 2.394-2.85s.855-2.603.855-4.161-.285-2.945-.855-4.161-1.368-2.147-2.394-2.793c-.988-.684-2.147-1.026-3.477-1.026-1.368 0-2.565.342-3.591 1.026-1.026.646-1.843 1.577-2.451 2.793s-.912 2.603-.912 4.161.304 2.945.912 4.161 1.425 2.166 2.451 2.85c1.064.684 2.28 1.026 3.648 1.026z"/><path d="m275.214 48.684c-2.812 0-5.301-.627-7.467-1.881-2.166-1.292-3.876-3.059-5.13-5.301-1.216-2.242-1.824-4.826-1.824-7.752s.627-5.51 1.881-7.752c1.292-2.242 3.04-3.99 5.244-5.244 2.242-1.292 4.807-1.938 7.695-1.938 2.508 0 4.807.665 6.897 1.995 2.128 1.292 3.819 3.211 5.073 5.757 1.292 2.508 1.938 5.567 1.938 9.177h-21.603l.684-.684c0 1.406.342 2.641 1.026 3.705.722 1.026 1.634 1.824 2.736 2.394 1.14.532 2.356.798 3.648.798 1.558 0 2.831-.323 3.819-.969.988-.684 1.748-1.558 2.28-2.622l6.726 2.622c-.798 1.596-1.843 2.983-3.135 4.161-1.254 1.14-2.755 2.014-4.503 2.622s-3.743.912-5.985.912zm-6.213-17.841-.684-.684h13.737l-.627.684c0-1.368-.323-2.451-.969-3.249-.646-.836-1.444-1.444-2.394-1.824-.912-.38-1.805-.57-2.679-.57s-1.805.19-2.793.57-1.843.988-2.565 1.824c-.684.798-1.026 1.881-1.026 3.249z"/><path d="m308.2 48.684c-2.964 0-5.605-.627-7.923-1.881-2.318-1.292-4.123-3.059-5.415-5.301-1.292-2.28-1.938-4.864-1.938-7.752 0-2.926.646-5.51 1.938-7.752s3.078-3.99 5.358-5.244c2.28-1.292 4.902-1.938 7.866-1.938 2.85 0 5.453.703 7.809 2.109s4.066 3.439 5.13 6.099l-7.068 2.508c-.532-1.102-1.368-1.976-2.508-2.622-1.102-.684-2.337-1.026-3.705-1.026-1.406 0-2.641.342-3.705 1.026-1.064.646-1.9 1.558-2.508 2.736s-.912 2.546-.912 4.104.304 2.926.912 4.104c.608 1.14 1.463 2.052 2.565 2.736s2.356 1.026 3.762 1.026c1.368 0 2.603-.361 3.705-1.083 1.14-.722 1.976-1.672 2.508-2.85l7.125 2.508c-1.102 2.698-2.831 4.788-5.187 6.27-2.318 1.482-4.921 2.223-7.809 2.223z"/><path d="m333.331 40.761-4.503-5.187 14.592-16.074h8.949zm-7.182 7.239v-39.90003h7.524v39.90003zm18.24 0-9.462-13.794 4.902-5.187 13.395 18.981z"/></g></svg>